<?xml version="1.0" encoding="utf-8"?>
<!-- Generator: Adobe Illustrator 21.0.0, SVG Export Plug-In . SVG Version: 6.00 Build 0)  -->
<svg version="1.1" id="Capa_1" xmlns="http://www.w3.org/2000/svg" xmlns:xlink="http://www.w3.org/1999/xlink" x="0px" y="0px"
	 viewBox="0 0 512 512" style="enable-background:new 0 0 512 512;" xml:space="preserve">
<style type="text/css">
	.st0{fill:#FFFFFF;}
</style>
<path class="st0" d="M150.3,114c13.6-0.1,27.1,1.2,40.4,3.9c11.1,2.2,21.8,6.5,31.3,12.8c8.7,6,15.7,14.1,20.2,23.6
	c4.7,9.7,7.1,21.9,7.1,36.3c0,15.6-3.5,28.6-10.6,39c-7.1,10.4-17.6,18.9-31.6,25.5c19,5.5,33.1,15.1,42.5,28.8
	c9.4,13.7,14,30.3,14,49.7c0,15.7-3,29.2-9,40.6c-5.8,11.1-14.2,20.7-24.5,28c-10.7,7.4-22.6,12.9-35.2,16
	c-13.2,3.5-26.8,5.3-40.5,5.2H4.4V114H150.3z M141.5,239c12.1,0,22.1-2.9,30-8.7c7.9-5.8,11.6-15.2,11.6-28.2
	c0-7.2-1.3-13.1-3.8-17.8c-2.5-4.5-6.1-8.2-10.5-10.8c-4.6-2.7-9.7-4.6-15-5.4c-5.8-1.1-11.7-1.6-17.5-1.5H72.5V239H141.5z
	 M145.3,370.8c6.4,0.1,12.8-0.6,19.1-1.9c5.7-1.1,11.1-3.4,16-6.5c4.7-3.1,8.5-7.3,11.1-12.3c2.8-5.2,4.1-11.9,4.1-20.1
	c0-16-4.5-27.3-13.4-34.2c-8.9-6.9-20.9-10.2-35.5-10.2h-74v85.2L145.3,370.8z"/>
<path class="st0" d="M360.7,369.8c9.2,9,22.5,13.5,39.8,13.5c12.4,0,23.1-3.1,32.1-9.4c8.9-6.3,14.4-12.9,16.5-19.9h54.2
	c-8.7,27-21.9,46.2-40,57.8c-17.8,11.6-39.6,17.4-64.9,17.4c-17.7,0-33.5-2.9-47.8-8.5c-13.7-5.3-26-13.6-36.2-24.1
	c-10-10.8-17.7-23.5-22.8-37.4c-5.4-14.5-8-30.4-8-47.8c-0.1-16,2.7-31.9,8.3-46.9c5.2-14,13.2-26.7,23.4-37.5
	c10.3-10.7,22.7-19.2,36.3-25c14.1-6.1,29.6-9.1,46.7-9.1c19,0,35.6,3.7,49.8,11.1c13.8,7,25.8,17.2,35,29.7
	c9.3,12.8,15.9,27.2,19.7,42.5c4.1,16.3,5.5,33.1,4.3,49.9H345.5C345.5,344,351.4,360.8,360.7,369.8z M431.4,252
	c-7.3-8.1-19.7-12.5-34.8-12.5c-9.8,0-18,1.7-24.5,5c-6,3-11.3,7.2-15.6,12.3c-3.8,4.6-6.6,10-8.3,15.8c-1.5,4.8-2.4,9.8-2.8,14.8
	h100.2C444.2,271.8,438.8,260.2,431.4,252z"/>
<rect x="332.9" y="134.8" class="st0" width="125.5" height="30.5"/>
</svg>
