<?xml version="1.0" encoding="utf-8"?>
<!-- Generator: Adobe Illustrator 23.0.2, SVG Export Plug-In . SVG Version: 6.00 Build 0)  -->
<svg version="1.1" id="Capa_1" xmlns="http://www.w3.org/2000/svg" xmlns:xlink="http://www.w3.org/1999/xlink" x="0px" y="0px"
	 viewBox="0 0 512 512" style="enable-background:new 0 0 512 512;" xml:space="preserve">
<style type="text/css">
	.st0{fill:#FFFFFF;}
</style>
<path class="st0" d="M501.3,103.8c-5.9-22.2-23.2-39.6-45.3-45.6c-39.9-10.8-200-10.8-200-10.8s-160.1,0-200,10.8
	c-22,5.9-39.4,23.4-45.3,45.6C0,144,0,227.8,0,227.8s0,83.8,10.7,124c5.9,22.2,23.2,39.6,45.3,45.6c39.9,10.8,200,10.8,200,10.8
	s160.1,0,200-10.8c22-5.9,39.4-23.4,45.3-45.6c10.7-40.2,10.7-124,10.7-124S512,144,501.3,103.8z M203.6,304V151.7l133.8,76.1
	L203.6,304z"/>
</svg>
